<?xml version="1.0" standalone="no"?><!DOCTYPE svg PUBLIC "-//W3C//DTD SVG 1.1//EN" "http://www.w3.org/Graphics/SVG/1.1/DTD/svg11.dtd"><svg t="1682586823145" class="icon" viewBox="0 0 1024 1024" version="1.1" xmlns="http://www.w3.org/2000/svg" p-id="5005" width="48" height="48" xmlns:xlink="http://www.w3.org/1999/xlink"><path d="M568.888889 378.88l265.102222 389.12c28.444444 42.097778 17.066667 97.848889-23.893333 126.293333-14.791111 10.24-32.995556 15.928889-51.2 15.928889H265.102222c-50.062222 0-91.022222-40.96-91.022222-91.022222 0-18.204444 5.688889-36.408889 15.928889-51.2L455.111111 378.88c21.617778-30.72 63.715556-38.684444 94.435556-18.204444 7.964444 4.551111 13.653333 11.377778 19.342222 18.204444z" fill="#FF5C90" p-id="5006"></path><path d="M568.888889 645.12l265.102222-389.12c28.444444-42.097778 17.066667-97.848889-23.893333-126.293333-14.791111-10.24-32.995556-15.928889-51.2-15.928889H265.102222c-50.062222 0-91.022222 40.96-91.022222 91.022222 0 18.204444 5.688889 36.408889 15.928889 51.2L455.111111 645.12c21.617778 30.72 63.715556 38.684444 94.435556 18.204444 7.964444-4.551111 13.653333-11.377778 19.342222-18.204444z" fill="#FF62A7" p-id="5007"></path><path d="M568.888889 372.053333L659.911111 512l-91.022222 139.946667a68.152889 68.152889 0 0 1-94.435556 20.48c-7.964444-5.688889-14.791111-12.515556-19.342222-20.48L364.088889 512l91.022222-139.946667c20.48-31.857778 62.577778-40.96 94.435556-20.48 7.964444 5.688889 14.791111 12.515556 19.342222 20.48z" fill="#F02452" p-id="5008"></path></svg>